PathFileType  4	(X/Y/Z) C:\Users\antoi\Documents\MyRepositories\mobilecap\ResultsAnalysis
DataRate	CameraRate	NumFrames	NumMarkers	Units	OrigDataRate	OrigDataStartFrame	OrigNumFrames
100.0	100.0	6	51	mm	100.0	132	150
Frame#	Time	r_knee			r_shank_antsup			r_ankle			r_calc			r_5meta			r_toe			L_knee			L_shank_antsup			L_ankle			L_calc			L_5meta			L_toe			r_sh2			r_sh3			r_sh4			L_sh2			L_sh3			r_thigh1			r_thigh2			r_thigh3			r_thigh4			r_thigh5			L_thigh1			L_thigh2			L_thigh3			L_thigh4			r.ASIS			r.PSIS			L.ASIS			L.PSIS			C7			R_Shoulder			L_Shoulder			R_Sternum			L_Sternum			R_humerus			R_elbow_med			R_elbow_lat			R_forearm			R_wrist_radius			R_wrist_ulna			L_humerus			L_elbow_med			L_elbow_lat			L_forearm			L_wrist_radius			L_wrist_ulna			R_HJC			L_HJC			R_HJC_reg			L_HJC_reg			
		X1	Y1	Z1	X2	Y2	Z2	X3	Y3	Z3	X4	Y4	Z4	X5	Y5	Z5	X6	Y6	Z6	X7	Y7	Z7	X8	Y8	Z8	X9	Y9	Z9	X10	Y10	Z10	X11	Y11	Z11	X12	Y12	Z12	X13	Y13	Z13	X14	Y14	Z14	X15	Y15	Z15	X16	Y16	Z16	X17	Y17	Z17	X18	Y18	Z18	X19	Y19	Z19	X20	Y20	Z20	X21	Y21	Z21	X22	Y22	Z22	X23	Y23	Z23	X24	Y24	Z24	X25	Y25	Z25	X26	Y26	Z26	X27	Y27	Z27	X28	Y28	Z28	X29	Y29	Z29	X30	Y30	Z30	X31	Y31	Z31	X32	Y32	Z32	X33	Y33	Z33	X34	Y34	Z34	X35	Y35	Z35	X36	Y36	Z36	X37	Y37	Z37	X38	Y38	Z38	X39	Y39	Z39	X40	Y40	Z40	X41	Y41	Z41	X42	Y42	Z42	X43	Y43	Z43	X44	Y44	Z44	X45	Y45	Z45	X46	Y46	Z46	X47	Y47	Z47	X48	Y48	Z48	X49	Y49	Z49	X50	Y50	Z50	X51	Y51	Z51	

132	1.31000000	1370.13171	457.11085	-106.01880	1395.99831	391.03665	-81.00303	1442.59227	89.02934	-105.34236	1379.13941	51.35651	-143.93354	1550.14169	51.83212	-81.16400	1589.42671	81.40711	-135.65884	1109.29386	451.16198	-416.39019	1098.63795	379.51573	-420.96743	894.75380	142.68034	-398.50882	813.07338	142.39754	-354.08625	947.48257	49.91540	-420.70722	1000.74748	50.55471	-365.95580	1419.80554	281.25243	-74.77458	1323.67590	373.54508	-93.53586	1340.28071	258.61397	-92.67702	1029.67977	436.09597	-432.81915	963.22385	334.24062	-435.74125	1332.97227	767.19390	-118.11193	1374.13157	661.66194	-108.79339	1334.59405	628.22433	-65.84048	1240.29043	739.30243	-59.88142	1274.13556	626.88408	-67.91967	1249.73204	713.16799	-432.86352	1219.86230	578.00203	-431.55973	1137.21006	739.88177	-436.70316	1113.59804	599.53788	-423.80127	1299.45707	890.53144	-131.82347	1113.98006	894.56966	-201.53629	1297.08427	880.75400	-392.48551	1112.56025	894.35964	-307.61929	1173.84647	1367.19123	-241.05197	1211.69098	1297.07659	-83.93625	1252.58653	1317.72144	-400.05855	1284.27365	1276.14476	-214.27517	1288.07937	1278.03291	-258.77810	1188.22981	1055.96864	-14.22613	1146.99694	954.97343	-74.27418	1153.53721	973.33651	-4.08375	1199.81563	862.33442	21.42799	1222.30173	747.00868	29.89099	1178.36778	738.40324	31.10878	1303.38070	1191.59589	-442.90288	1248.56837	974.26583	-440.56707	1280.07638	989.17777	-490.61644	1353.94657	905.43470	-486.38751	1394.22498	786.64603	-466.76078	1370.65345	771.29987	-493.17952	1237.73805	810.47556	-157.01412	1236.57328	807.74534	-357.28888	1243.14016	797.92841	-167.85901	1240.83606	797.58590	-339.99841	
133	1.32000000	1381.87695	457.97907	-105.12843	1406.89123	391.21792	-80.40008	1445.42575	88.65386	-105.54146	1380.12656	52.22037	-144.06295	1551.44350	48.90658	-81.17938	1591.86404	76.92753	-135.91115	1126.68166	449.76281	-416.55900	1113.50297	378.48806	-421.44253	902.70020	148.25283	-397.36325	821.86460	152.77509	-352.15580	949.82261	52.60589	-419.86070	1003.08782	50.14617	-365.54678	1428.29871	280.90916	-74.45894	1334.18424	375.28081	-93.01494	1348.39239	260.12087	-92.23153	1046.21328	437.32646	-432.35385	976.48296	337.48145	-434.70652	1345.19050	768.36181	-115.29986	1386.40030	662.88626	-106.20858	1346.08049	629.03343	-63.96371	1252.03639	740.29648	-57.98777	1285.56481	627.83207	-66.82491	1263.88119	713.22067	-430.74316	1235.82194	577.69014	-430.63146	1151.07004	738.56507	-434.38562	1129.45659	597.78631	-422.76551	1312.06845	891.44440	-129.81050	1126.36179	895.26473	-199.93019	1309.56090	881.12824	-390.44037	1125.03462	894.23919	-306.13828	1184.57095	1367.26822	-235.56271	1223.75351	1295.75399	-79.21859	1262.32075	1319.15986	-395.64492	1295.07757	1276.28849	-209.89731	1298.93880	1278.55928	-254.38747	1202.13574	1053.92424	-11.35341	1160.24119	953.42936	-72.09464	1167.55615	971.14111	-1.75125	1212.94229	859.66238	22.69672	1234.10927	743.96328	30.26628	1190.03332	735.91472	31.86914	1312.63482	1192.91087	-439.49855	1257.89161	975.54427	-436.88533	1288.18196	990.64901	-487.36677	1362.08872	906.77553	-484.48062	1402.41976	787.89625	-465.64712	1378.57475	772.65917	-491.77651	1250.28561	811.30197	-154.96838	1249.31985	807.98720	-355.23022	1255.42565	799.40323	-165.21746	1253.27326	797.73947	-337.33760	
134	1.33000000	1393.16406	459.15403	-104.05465	1417.15182	391.70703	-79.51757	1447.47752	88.45350	-105.60547	1380.79349	52.79651	-144.08368	1552.31533	46.93709	-81.04776	1593.53006	73.67694	-136.00542	1145.11187	448.29975	-416.85751	1129.32815	377.62768	-422.00526	911.71900	154.30355	-396.07745	832.38803	164.13797	-349.95897	952.52321	55.88158	-418.88968	1005.85862	50.01468	-365.20513	1436.00085	280.92448	-73.83605	1344.08367	377.42226	-92.19963	1355.73070	262.09861	-91.38367	1063.78305	438.66687	-431.82387	990.83254	340.99962	-433.52672	1357.05258	770.01746	-112.59112	1398.24749	664.50780	-103.66824	1357.32141	630.30840	-62.02059	1263.47673	741.70019	-56.00730	1296.78189	629.22130	-65.53444	1278.54446	713.60285	-428.39218	1252.66129	577.53923	-429.70503	1165.36862	737.06034	-432.29351	1146.13751	595.84027	-422.08115	1324.12123	892.83351	-127.65136	1138.40475	896.41020	-198.55773	1321.81894	881.78403	-388.22251	1137.23258	894.44964	-304.88674	1195.26974	1367.67640	-230.27793	1235.70133	1294.82817	-74.71489	1272.08222	1320.92532	-391.37363	1305.83577	1276.76511	-205.63835	1309.71803	1279.37698	-250.11608	1216.27671	1052.33467	-8.57516	1173.81349	952.25479	-69.91851	1181.89538	969.38675	0.55636	1226.35415	857.44754	23.99110	1246.20837	741.40325	30.71734	1202.03040	733.90069	32.77807	1321.77192	1194.54286	-436.30980	1267.21147	977.09728	-433.12381	1296.17394	992.41542	-484.06883	1370.05637	908.37143	-482.53662	1410.36237	789.39245	-464.49678	1386.22906	774.26807	-490.31643	1262.31172	812.59441	-152.84419	1261.86788	808.53203	-353.08776	1267.25515	801.39092	-162.36426	1265.35575	798.21739	-334.44444	
135	1.34000000	1403.69302	460.43954	-102.79172	1426.51549	392.31379	-78.36102	1448.81769	88.32928	-105.54930	1381.19953	53.14847	-144.02547	1552.84777	45.67504	-80.80645	1594.53829	71.41400	-135.96037	1164.43110	446.78899	-417.24943	1146.11326	376.90416	-422.60753	921.76846	160.80693	-394.68152	844.71727	176.33547	-347.52126	955.65843	59.84998	-417.81151	1009.08744	50.30324	-364.97808	1442.73288	281.11958	-72.94189	1353.11959	379.73626	-91.08155	1362.10535	264.29343	-90.19979	1082.39186	440.05637	-431.22142	1006.30314	344.75486	-432.20772	1368.58498	771.99193	-110.09101	1409.63105	666.35209	-101.30417	1368.27307	631.91340	-60.11352	1274.66412	743.45920	-53.97505	1307.73891	630.95828	-64.06600	1293.56571	714.32001	-425.90413	1270.24972	577.58110	-428.81414	1179.96263	735.39361	-430.46529	1163.49148	593.73840	-421.73211	1335.65859	894.67821	-125.38586	1150.11539	897.91837	-197.38016	1333.79202	882.74402	-385.82661	1149.10738	894.98775	-303.83086	1205.89071	1368.40715	-225.25447	1247.51134	1294.32949	-70.47368	1281.88952	1323.00908	-387.25045	1316.57060	1277.56394	-201.55934	1320.42168	1280.48062	-246.03002	1230.59636	1051.23883	-5.92675	1187.68887	951.49164	-67.78599	1196.50484	968.11498	2.80389	1240.03060	855.74692	25.30255	1258.60022	739.39014	31.24318	1214.36034	732.42954	33.84900	1330.82263	1196.52795	-433.34960	1276.47995	978.98986	-429.29581	1304.06965	994.50703	-480.73263	1377.85779	910.24696	-480.54293	1418.04789	791.14960	-463.29848	1393.57972	776.13573	-488.79675	1273.85513	814.31269	-150.66363	1274.18449	809.39018	-350.88325	1278.71897	803.79360	-159.37415	1277.08793	799.06055	-331.36315	
136	1.35000000	1413.20589	461.64778	-101.36509	1434.80451	392.86979	-76.98524	1449.59178	88.22435	-105.39549	1381.41623	53.34614	-143.91981	1553.13591	44.89177	-80.49829	1595.03043	69.86454	-135.81401	1184.46606	445.25199	-417.67283	1163.83157	376.27212	-423.19761	932.80192	167.71897	-393.19395	858.81514	189.11986	-344.85503	959.36408	64.61427	-416.64424	1012.84493	51.17526	-364.88349	1448.43579	281.33225	-71.84630	1361.12943	381.98136	-89.70388	1367.45190	266.45347	-88.79616	1102.00188	441.42959	-430.53681	1022.88459	348.67074	-430.75643	1379.82965	774.05984	-107.85310	1420.50430	668.19015	-99.17573	1378.84368	633.66767	-58.29682	1285.62751	745.49548	-51.94231	1318.31851	632.91536	-62.46764	1308.73694	715.34038	-423.39580	1288.39022	577.83650	-427.96414	1194.68065	733.59975	-428.90845	1181.31517	591.53734	-421.64622	1346.79186	896.91619	-123.07869	1161.51735	899.68041	-196.32628	1345.42329	884.01324	-383.28305	1160.63102	895.82490	-302.90402	1216.39720	1369.42552	-220.53124	1259.17221	1294.26130	-66.52613	1291.73862	1325.37409	-383.27581	1327.29329	1278.64858	-197.71878	1331.05893	1281.84813	-242.18817	1245.02769	1050.64318	-3.43090	1201.81124	951.16072	-65.73074	1211.31655	967.33894	4.96455	1253.95023	854.59576	26.62199	1271.28629	737.95578	31.85033	1227.02208	731.54031	35.09235	1339.82091	1198.86921	-430.60172	1285.63692	981.26198	-425.42889	1311.87179	996.92121	-477.38250	1385.49859	912.40385	-478.51010	1425.49158	793.16749	-462.05497	1400.63169	778.25816	-487.21547	1285.00779	816.38141	-148.46175	1286.23844	810.55221	-348.65255	1289.93058	806.49033	-156.34486	1288.50010	800.27909	-328.16893	
137	1.36000000	1421.56332	462.64995	-99.83797	1441.96045	393.26582	-75.48646	1449.97381	88.11810	-105.17238	1381.50952	53.44877	-143.79497	1553.26492	44.41253	-80.16597	1595.15519	68.78294	-135.61435	1205.04486	443.72861	-418.05308	1182.42156	375.69994	-423.72297	944.79674	174.97924	-391.61947	874.52480	202.15743	-341.96658	963.86041	70.24113	-415.40336	1017.29019	52.79359	-364.90021	1453.16569	281.45108	-70.64080	1368.06602	383.96924	-88.16150	1371.82866	268.39184	-87.30950	1122.52448	442.74029	-429.76486	1040.51914	352.64925	-429.18931	1390.83199	776.00604	-105.89047	1430.82194	669.79844	-97.28155	1388.92226	635.39508	-56.58269	1296.37285	747.72618	-49.97110	1328.38282	634.96680	-60.81365	1323.81383	716.59811	-420.99649	1306.84043	578.32054	-427.13823	1209.35063	731.72355	-427.59523	1199.38542	589.31377	-421.70717	1357.65834	899.44579	-120.81441	1172.64101	901.59108	-195.30639	1356.66292	885.57124	-380.66835	1171.79621	896.90979	-302.01342	1226.78534	1370.67498	-216.12690	1270.68656	1294.59820	-62.88375	1301.60362	1327.96256	-379.45310	1338.00079	1279.96476	-194.16484	1341.63378	1283.44010	-238.63438	1259.49931	1050.52031	-1.09748	1216.10788	951.25015	-63.76870	1226.24880	967.03913	7.02315	1268.08734	853.99787	27.94304	1284.27430	737.09886	32.55605	1240.01980	731.23018	36.50728	1348.79740	1201.53075	-428.03178	1294.64004	983.91058	-421.56820	1319.57446	999.62017	-474.06117	1392.98514	914.81470	-476.47402	1432.72608	795.42360	-460.78438	1407.42649	780.61155	-485.57771	1295.88538	818.69892	-146.28490	1297.98944	811.98534	-346.44426	1300.98033	809.36118	-153.38328	1299.62217	801.84001	-324.96360	
